<?xml version="1.0" encoding="utf-8"?>
<!-- Generator: Adobe Illustrator 21.0.2, SVG Export Plug-In . SVG Version: 6.00 Build 0)  -->
<svg version="1.1" id="Ebene_1" xmlns="http://www.w3.org/2000/svg" xmlns:xlink="http://www.w3.org/1999/xlink" x="0px" y="0px"
	 viewBox="0 0 900 320" style="enable-background:new 0 0 900 320;" xml:space="preserve">
<style type="text/css">
	.st0{fill:none;stroke:#05008C;stroke-width:20;stroke-miterlimit:10;}
	.st1{fill:#FBB03B;}
	.st2{fill:none;stroke:#D11E00;stroke-width:20;stroke-miterlimit:10;}
</style>
<rect x="29.9" y="30" class="st0" width="261.8" height="262"/>
<path class="st1" d="M361,34h15.3l23.4,97l23.4-97h17l23.5,97l23.4-97h15.3l-28,114.8h-19l-23.5-99.6L408,148.8h-19L361,34z"/>
<path class="st1" d="M553.7,34h17.2l42.6,114.8h-15.7l-10.2-29.4h-50.4L527,148.8h-16L553.7,34z M562.3,49.3l-20.5,57.1h41.2
	L562.3,49.3z"/>
<path class="st1" d="M694.5,95c3.3,1.1,6.4,3.5,9.5,7.2c3,3.7,6.1,8.8,9.2,15.2l15.4,31.4h-16.3L698,119.3
	c-3.7-7.7-7.2-12.8-10.7-15.3c-3.5-2.5-8.2-3.8-14.2-3.8h-16.5v48.5h-15.1V34h34.1c12.8,0,22.3,2.7,28.6,8.2
	c6.3,5.5,9.4,13.8,9.4,24.8c0,7.2-1.6,13.2-4.9,18C705.5,89.8,700.8,93.1,694.5,95z M656.7,46.8v40.7h19c7.3,0,12.8-1.7,16.5-5.2
	c3.7-3.5,5.6-8.5,5.6-15.3c0-6.7-1.9-11.8-5.6-15.2c-3.7-3.4-9.2-5.1-16.5-5.1H656.7z"/>
<path class="st1" d="M759.8,34h70.6v13.1h-55.4v34h53.2v13.1h-53.2v41.6h56.9v13.1h-72V34z"/>
<path class="st1" d="M367,176.3h13.1v44.9h47.5v-44.9h13.1v109.5h-13.1v-52.2h-47.5v52.2H367V176.3z"/>
<path class="st1" d="M510.2,174.4c13.6,0,24.4,5.1,32.5,15.4c8.1,10.3,12.2,24.1,12.2,41.4c0,17.3-4.1,31-12.2,41.3
	c-8.1,10.3-18.9,15.4-32.5,15.4s-24.4-5.1-32.5-15.4c-8.1-10.3-12.2-24.1-12.2-41.4c0-17.3,4.1-31.1,12.2-41.4
	C485.8,179.5,496.7,174.4,510.2,174.4z M510.2,186.4c-9.5,0-17,4-22.6,12c-5.6,8-8.4,19-8.4,32.8c0,13.8,2.8,24.7,8.4,32.7
	c5.6,8,13.1,12,22.6,12s17-4,22.6-12c5.6-8,8.3-18.9,8.3-32.7c0-13.8-2.8-24.8-8.3-32.8C527.2,190.4,519.7,186.4,510.2,186.4z"/>
<path class="st1" d="M578.1,176.3h13.2v66.5c0,11.7,1.9,20.2,5.6,25.3c3.8,5.2,9.8,7.7,18.2,7.7c8.4,0,14.5-2.6,18.2-7.7
	c3.7-5.2,5.6-13.6,5.6-25.3v-66.5h13.2v68.4c0,14.3-3.1,25.1-9.3,32.4c-6.2,7.3-15.4,10.9-27.6,10.9c-12.2,0-21.5-3.6-27.7-10.9
	c-6.2-7.3-9.3-18.1-9.3-32.4V176.3z"/>
<path class="st1" d="M738.9,179.9v14.5c-4.9-2.7-9.6-4.7-14-6c-4.4-1.3-8.7-2-12.7-2c-7.1,0-12.6,1.6-16.5,4.7
	c-3.9,3.1-5.8,7.6-5.8,13.4c0,4.8,1.3,8.5,3.8,11c2.6,2.5,7.4,4.5,14.6,6l7.8,1.8c9.8,2.1,17,5.8,21.6,11.1
	c4.6,5.3,6.9,12.4,6.9,21.3c0,10.6-3.1,18.7-9.4,24.1c-6.3,5.5-15.5,8.2-27.6,8.2c-4.6,0-9.5-0.6-14.6-1.8c-5.2-1.2-10.5-2.9-16-5.2
	v-15.3c5.3,3.4,10.5,5.9,15.6,7.6c5.1,1.7,10.1,2.6,15,2.6c7.4,0,13.2-1.7,17.3-5c4.1-3.3,6.1-8.1,6.1-14.2c0-5.4-1.5-9.6-4.4-12.6
	s-7.7-5.3-14.4-6.8l-7.9-1.8c-9.8-2.2-16.8-5.6-21.2-10.3c-4.3-4.7-6.5-11.2-6.5-19.6c0-9.7,3-17.3,9-22.9c6-5.6,14.3-8.4,24.8-8.4
	c4.6,0,9.2,0.5,13.9,1.4C729.2,176.7,734,178.1,738.9,179.9z"/>
<path class="st1" d="M769.4,176.3h61.1v12.5h-48v32.4h46v12.5h-46v39.7h49.2v12.5h-62.3V176.3z"/>
<polyline class="st2" points="261.6,152 160.7,83.1 59.8,152 "/>
</svg>
